<?xml version="1.0" standalone="no"?>
<!DOCTYPE svg PUBLIC "-//W3C//DTD SVG 20010904//EN"
 "http://www.w3.org/TR/2001/REC-SVG-20010904/DTD/svg10.dtd">
<svg version="1.0" xmlns="http://www.w3.org/2000/svg"
 width="500.000000pt" height="203.000000pt" viewBox="0 0 500.000000 203.000000"
 preserveAspectRatio="xMidYMid meet">

<g transform="translate(0.000000,203.000000) scale(0.100000,-0.100000)"
fill="#000000" stroke="none">
<path d="M1212 1725 c-158 -73 -328 -320 -442 -640 -24 -66 -46 -123 -49 -127
-11 -12 -133 292 -139 343 -4 41 -2 48 16 53 12 4 20 15 19 26 -1 19 -10 20
-164 20 -151 0 -163 -1 -163 -18 0 -10 10 -24 22 -31 37 -20 50 -44 168 -328
l113 -273 87 0 88 0 57 168 c107 308 150 402 229 504 84 106 200 159 306 140
49 -9 52 -8 61 15 13 34 11 87 -3 118 -27 59 -117 72 -206 30z"/>
<path d="M3044 1516 c-45 -45 -47 -95 -5 -137 64 -64 162 -13 161 83 -1 37
-14 59 -47 76 -39 21 -73 14 -109 -22z"/>
<path d="M2748 1381 c-35 -37 -79 -69 -117 -87 -47 -23 -60 -34 -60 -51 -1
-20 4 -23 34 -23 l35 0 0 -183 c0 -165 -2 -186 -18 -200 -25 -22 -49 -21 -62
2 -5 11 -10 73 -10 139 0 174 -32 247 -127 293 -38 19 -64 23 -128 23 -105 0
-160 -17 -207 -64 -64 -64 -42 -120 47 -120 52 0 75 17 84 60 8 42 45 66 85
56 35 -9 66 -60 66 -112 l0 -41 -94 -6 c-162 -11 -245 -55 -276 -147 -14 -42
-26 -58 -52 -72 -72 -39 -147 -32 -207 18 -108 90 -61 328 70 359 40 10 60
-16 53 -69 -8 -55 18 -86 71 -86 97 0 99 111 4 180 -143 103 -376 29 -433
-138 -24 -69 -20 -157 8 -218 18 -38 21 -55 13 -63 -15 -15 -44 -14 -54 2 -4
6 -10 77 -13 157 -7 167 -21 209 -91 260 -101 73 -304 59 -379 -26 -54 -62
-29 -114 55 -114 52 0 75 17 84 60 8 42 45 66 85 56 35 -9 66 -60 66 -112 l0
-41 -94 -6 c-184 -12 -276 -73 -276 -183 0 -93 65 -144 183 -144 73 0 123 17
158 54 27 29 39 33 39 13 0 -32 49 -61 110 -65 74 -5 100 1 140 34 l31 26 62
-33 c57 -31 69 -34 148 -34 80 0 92 3 160 38 l73 37 25 -24 c37 -35 73 -46
147 -46 69 0 123 20 158 59 l19 21 32 -37 c31 -36 35 -38 106 -41 67 -3 78 -1
112 22 l39 26 30 -25 c25 -21 40 -25 94 -25 68 0 106 14 138 49 18 19 18 23 4
37 -12 13 -19 13 -42 2 -50 -22 -56 0 -56 209 l0 183 50 0 c49 0 50 1 50 30 0
29 -1 30 -50 30 l-50 0 0 80 c0 44 -3 80 -7 80 -5 0 -33 -27 -65 -59z m-1472
-413 c-9 -66 -29 -104 -66 -123 -40 -21 -64 -19 -96 9 -21 17 -28 33 -28 59 0
64 59 106 148 107 l49 0 -7 -52z m1090 6 c-8 -63 -34 -112 -67 -129 -42 -22
-67 -18 -101 15 -25 26 -29 36 -24 62 12 62 67 97 150 98 l49 0 -7 -46z"/>
<path d="M4171 1286 c-18 -6 -50 -26 -72 -44 l-38 -32 -3 37 -3 38 -57 3 c-66
3 -126 -10 -159 -37 l-23 -18 29 -26 30 -25 3 -149 c4 -159 -6 -216 -38 -233
-11 -6 -20 -20 -20 -30 0 -19 8 -20 150 -20 167 0 175 4 119 59 l-31 31 4 138
c3 118 7 143 26 179 35 67 79 82 109 36 16 -24 19 -63 23 -348 5 -311 6 -321
29 -368 42 -86 131 -121 247 -97 81 17 124 60 124 122 0 54 -25 81 -72 81 -44
0 -68 -33 -68 -94 0 -51 -21 -76 -54 -63 -31 12 -36 65 -36 403 0 329 0 338
-22 381 -17 33 -35 51 -68 68 -49 24 -79 26 -129 8z"/>
<path d="M3021 1274 c-60 -25 -64 -32 -38 -68 20 -29 22 -44 25 -199 l3 -167
-30 -31 c-56 -55 -48 -59 118 -59 89 0 152 4 156 10 3 5 -6 21 -20 34 -39 37
-45 74 -45 293 l0 203 -67 0 c-38 -1 -83 -7 -102 -16z"/>
<path d="M3440 1281 c-166 -54 -238 -244 -154 -403 107 -199 428 -170 500 45
20 61 15 166 -11 217 -24 49 -73 98 -120 123 -44 22 -170 33 -215 18z m137
-89 c59 -89 52 -297 -13 -367 -29 -32 -39 -31 -74 3 -36 37 -53 97 -53 193 0
170 77 264 140 171z"/>
<path d="M1984 566 c-26 -26 -34 -42 -34 -70 0 -48 22 -89 55 -104 37 -17 98
-15 121 4 19 15 19 16 -1 8 -68 -24 -126 -10 -150 37 -24 46 -19 77 20 116 31
31 40 35 73 30 20 -3 46 -8 57 -12 14 -4 12 -2 -5 9 -14 8 -42 15 -63 16 -31
0 -46 -7 -73 -34z"/>
<path d="M2285 591 c-41 -18 -60 -51 -60 -103 0 -43 4 -53 33 -79 26 -23 42
-29 78 -29 39 0 51 5 81 35 33 33 35 39 30 81 -7 62 -40 95 -98 100 -24 2 -53
0 -64 -5z m113 -26 c76 -64 33 -175 -67 -175 -20 0 -42 11 -63 29 -96 85 32
228 130 146z"/>
<path d="M2574 566 c-26 -26 -34 -42 -34 -70 0 -48 22 -89 55 -104 36 -17 96
-14 120 5 l20 16 -20 -8 c-66 -26 -126 -11 -150 36 -29 54 -8 117 45 139 28
12 57 10 105 -5 14 -4 13 -2 -5 9 -14 8 -42 15 -63 16 -31 0 -46 -7 -73 -34z"/>
<path d="M2843 490 c0 -63 2 -101 4 -85 3 17 16 42 30 57 l25 26 46 -51 c25
-29 50 -54 56 -56 11 -4 -70 95 -85 105 -6 3 11 31 37 62 45 54 44 53 -29 -17
l-76 -75 -4 75 c-2 48 -3 34 -4 -41z"/>
<path d="M3097 593 l42 -4 4 -107 3 -107 2 107 2 107 43 4 c23 2 2 4 -48 4
-49 0 -71 -2 -48 -4z"/>
<path d="M3339 513 c-48 -104 -60 -133 -54 -133 2 0 11 14 20 30 15 29 18 30
83 30 67 0 68 0 80 -32 6 -17 14 -29 18 -26 6 7 -91 218 -101 218 -3 0 -24
-39 -46 -87z m76 11 c14 -31 25 -60 25 -65 0 -5 -25 -9 -55 -9 -30 0 -55 3
-55 6 0 10 52 124 56 124 3 0 15 -25 29 -56z"/>
<path d="M3594 490 c0 -63 1 -89 3 -57 2 31 2 83 0 115 -2 31 -3 5 -3 -58z"/>
<path d="M3732 493 l-2 -113 73 2 72 2 -67 3 -67 4 -4 107 -3 107 -2 -112z"/>
<path d="M3972 584 c-17 -12 -22 -24 -20 -47 3 -29 8 -34 61 -52 69 -24 87
-47 61 -77 -14 -15 -28 -19 -59 -16 -22 3 -49 8 -60 13 -15 6 -17 5 -9 -4 14
-15 76 -25 109 -17 14 4 30 17 36 30 17 37 -3 62 -65 80 -62 18 -70 27 -62 61
8 31 46 41 95 27 32 -10 34 -10 17 3 -26 20 -76 19 -104 -1z"/>
</g>
</svg>
